# xmcd CD database file
#
# Track frame offsets:
#	150
#	11914
#	30835
#	52786
#	68953
#	103656
#	117691
#	127483
#	140035
#	155194
#	173022
#	185614
#	197891
#
# Disc length: 2893 seconds
#
# Revision: 0
# Processed by: cddbd v1.5.1PL2 Copyright (c) Steve Scherf et al.
# Submitted via: CDex 1.51
#
DISCID=c50b4b0d
DTITLE=The Dynamic Duo - The Dynamic Duo
DYEAR=2005
DGENRE=Jazz
TTITLE0=Hit Me
TTITLE1=Apollo and Daphne
TTITLE2=Juanasaurus Rex
TTITLE3=Aluminum Armpit Society
TTITLE4=Wilcox On Test
TTITLE5=2-7-8
TTITLE6=Cuffed
TTITLE7=Leaving
TTITLE8=Jean-Michelle
TTITLE9=Funkifity
TTITLE10=12-8
TTITLE11=Teru
TTITLE12=Ml
EXTD=YEAR: 2005
EXTT0=
EXTT1=
EXTT2=
EXTT3=
EXTT4=
EXTT5=
EXTT6=
EXTT7=
EXTT8=
EXTT9=
EXTT10=
EXTT11=
EXTT12=
PLAYORDER=
